<?xml version="1.0" encoding="utf-8"?>
<!-- Generator: Adobe Illustrator 21.0.2, SVG Export Plug-In . SVG Version: 6.00 Build 0)  -->
<svg version="1.1" id="Слой_1" xmlns="http://www.w3.org/2000/svg" xmlns:xlink="http://www.w3.org/1999/xlink" x="0px" y="0px"
	 viewBox="0 0 1993.6 335.6" style="enable-background:new 0 0 1993.6 335.6;" xml:space="preserve">
<style type="text/css">
	.st0{fill:#FFFFFF;}
</style>
<g>
	<path class="st0" d="M0,206.8c16.2-4.7,28.1-19.7,28.1-37.4S16.2,136.7,0,132c11.3,8.6,18.6,22.1,18.6,37.4
		C18.7,184.7,11.4,198.3,0,206.8L0,206.8z M162.3,335.6c91.7,0,166.1-74.4,166.1-166.1S254,3.4,162.3,3.4c-6.9,0-13.7,0.4-20.4,1.3
		c82.1,10.1,145.7,80,145.7,164.9c0,84.8-63.6,154.8-145.7,164.9C148.6,335.1,155.3,335.6,162.3,335.6L162.3,335.6z M62.9,290.9
		c67.1,0,121.5-54.4,121.5-121.5S130,47.9,62.9,47.9c-5,0-10,0.3-14.9,0.9c60,7.3,106.5,58.5,106.5,120.5S108,282.5,48,289.8
		C52.9,290.6,57.8,290.9,62.9,290.9L62.9,290.9z M103.6,317.9c82,0,148.5-66.5,148.5-148.5S185.6,20.9,103.6,20.9
		c-6.2,0-12.2,0.4-18.2,1.1c73.4,9,130.2,71.5,130.2,147.3S158.7,307.7,85.4,316.6C91.3,317.5,97.4,317.9,103.6,317.9L103.6,317.9z
		 M13.9,226.7c31.6,0,57.2-25.6,57.2-57.2s-25.6-57.2-57.2-57.2c-2.4,0-4.7,0.2-7,0.4c28.3,3.5,50.2,27.6,50.2,56.8
		s-21.9,53.3-50.2,56.8C9.1,226.5,11.5,226.7,13.9,226.7L13.9,226.7z M33.9,259.8c49.9,0,90.3-40.5,90.3-90.3
		c0-49.9-40.4-90.3-90.3-90.3c-3.7,0-7.4,0.2-11.1,0.7c44.7,5.5,79.2,43.5,79.2,89.6s-34.6,84.2-79.2,89.6
		C26.5,259.5,30.2,259.8,33.9,259.8L33.9,259.8z"/>
</g>
<g>
	<path class="st0" d="M450.4,86.5v104.3c0,23.2,9.4,30.3,31,30.3h55.4c19.8,0,29.3-7.5,29.3-30.5V86.5h40.2v108.2
		c0,44.3-16.7,59.8-60,59.8h-73.8c-42.4,0-62.2-19.1-62.2-59.8V86.5H450.4z"/>
	<path class="st0" d="M813.1,86.5v33.9L688.3,221h124.9v33.4H624.4v-32.9l129.5-101.6H624.4V86.5H813.1z"/>
	<path class="st0" d="M917.2,86.5L972.9,221h2.4l55.7-134.6h74.8v168h-40.2V119.9h-5.3l-57.6,134.6h-57.1l-57.6-134.6h-5.3v134.6
		h-40.2v-168H917.2z"/>
	<path class="st0" d="M1269.1,254.4h-73.8c-45,0-62-16.7-62-57.4v-52.8c0-46,16.2-59.8,62-59.8h73.8c41.6,0,60.7,12.6,60.7,59.8
		v52.8C1329.8,239,1316,254.4,1269.1,254.4z M1204.9,221h53.2c25.7,0,31.5-5.6,31.5-28.3V148c0-24.4-8.2-30-32.2-30h-51.8
		c-25.2,0-32.2,6.3-32.2,30.3V193C1173.5,215,1180.5,221,1204.9,221z"/>
	<path class="st0" d="M1356.4,86.5h121c37.3,0,57.8,11.1,57.8,42.1c0,27.1-7.3,32.9-20.8,37.3c16.7,5.6,27.3,12.8,27.3,39.2
		c0,36.1-18.2,49.4-56.1,49.4h-129.2V86.5z M1396.6,154.5h82c10.9,0,16.5-8.5,16.5-19.6c0-10.2-5.6-16.7-16.7-16.7h-81.8V154.5z
		 M1396.6,222.7h80.6c21.5,0,24.4-4.8,24.4-19.6c0-12.8-2.2-18.9-23-18.9h-82V222.7z"/>
	<path class="st0" d="M1617.5,254.4h-40.2v-168h40.2V254.4z"/>
	<path class="st0" d="M1650,86.5h40.2V221h103.8v33.4h-144V86.5z"/>
	<path class="st0" d="M1822,86.5h171.6v31.7h-131.4V155h127.3v29.3h-127.3v38.5h131.4v31.7H1822V86.5z"/>
</g>
</svg>
