<?xml version="1.0" encoding="utf-8"?>
<!-- Generator: Adobe Illustrator 21.0.2, SVG Export Plug-In . SVG Version: 6.00 Build 0)  -->
<svg version="1.1" id="Слой_1" xmlns="http://www.w3.org/2000/svg" xmlns:xlink="http://www.w3.org/1999/xlink" x="0px" y="0px"
	 viewBox="0 0 492.3 74.3" style="enable-background:new 0 0 492.3 74.3;" xml:space="preserve">
<style type="text/css">
	.st0{fill:#FFFFFF;}
</style>
<title>uztelecom logo</title>
<path class="st0" d="M0,45.5c4.6-1.3,7.3-6.2,5.9-10.8c-0.8-2.9-3.1-5.1-5.9-5.9c4.6,3.5,5.5,10.1,2.1,14.7C1.5,44.3,0.8,45,0,45.5z
	 M3.1,50c7.1,0,12.8-5.7,12.8-12.8S10.2,24.4,3.1,24.4c-0.5,0-1.1,0-1.6,0.1c7,0.9,12,7.3,11.1,14.3c-0.7,5.8-5.3,10.4-11.1,11.1
	C2,49.9,2.6,50,3.1,50z M7.6,57.4c11.2,0.2,20.4-8.6,20.7-19.8S19.6,17.2,8.5,17c-0.3,0-0.6,0-0.9,0c-0.8,0-1.7,0.1-2.5,0.2
	C16.2,18.5,24,28.6,22.7,39.6c-1.1,9.2-8.4,16.5-17.6,17.6C5.9,57.3,6.8,57.4,7.6,57.4z"/>
<path class="st0" d="M36.3,74.3c20.5,0,37.2-16.6,37.2-37.2C73.4,16.6,56.8,0,36.3,0c-1.5,0-3,0.1-4.6,0.3
	c20.4,2.5,34.9,21,32.3,41.4C62,58.6,48.6,72,31.7,74C33.2,74.2,34.8,74.3,36.3,74.3z M14.1,64.3c15,0,27.2-12.1,27.2-27.1
	S29.1,10,14.1,10c-1.1,0-2.3,0.1-3.4,0.2c14.9,1.9,25.5,15.4,23.6,30.3c-1.5,12.3-11.3,22-23.6,23.6C11.8,64.2,12.9,64.3,14.1,64.3
	L14.1,64.3z M23.2,70.3c18.3,0,33.2-14.9,33.2-33.2S41.5,3.9,23.2,3.9l0,0c-1.4,0-2.7,0.1-4.1,0.3c18.2,2.2,31.1,18.8,28.8,37
	C46,56.3,34.1,68.2,19.1,70C20.4,70.2,21.8,70.3,23.2,70.3L23.2,70.3z"/>
<path class="st0" d="M449.6,19.8l15.1,24.3l15-24.3l0.5-0.8h12v36.8H483V31.5L467.9,55l-0.5,0.8H462l-0.5-0.8l-15.2-23.4v24.2h-9.2
	V18.9h12L449.6,19.8L449.6,19.8z M409.8,55.8L409.8,55.8c-3.5,0-6.4-0.1-8.9-0.4c-0.9-0.1-1.6-0.2-2.3-0.3c-1.3-0.2-2.5-0.4-3.7-0.8
	l0,0c-0.4-0.1-0.9-0.3-1.3-0.5s-0.8-0.4-1.2-0.6c-1.9-1.2-3.4-3.1-4-5.2l0,0c-0.1-0.3-0.2-0.6-0.2-1s-0.1-0.7-0.2-1.1
	c-0.3-2.9-0.5-5.9-0.4-8.9c0-2.7,0.1-5,0.2-6.8c0.1-1.4,0.3-2.8,0.6-4.2l0,0c0.1-0.4,0.3-0.8,0.5-1.3c0.2-0.4,0.4-0.8,0.6-1.2
	c1.3-1.9,3.2-3.4,5.4-4l0,0c2-0.6,4-1,6.1-1.1c2.5-0.2,5.4-0.4,8.8-0.4l0,0c3.4,0,6.4,0.1,8.8,0.3c2,0.2,4,0.5,6,1.1l0,0
	c0.4,0.1,0.9,0.3,1.3,0.5s0.8,0.4,1.2,0.6c1.9,1.2,3.4,3.1,4,5.3l0,0c0.4,1.4,0.6,2.9,0.7,4.3c0.1,1.8,0.2,4.1,0.2,6.7
	c0,2.7-0.1,4.9-0.2,6.7c-0.1,1.4-0.3,2.8-0.6,4.2l0,0c-0.4,1.5-1.2,2.9-2.4,4l0,0c-1.2,1.1-2.6,1.9-4.1,2.4l0,0
	c-0.5,0.1-0.9,0.3-1.4,0.4s-1,0.2-1.6,0.3C417.7,55.6,413.7,55.8,409.8,55.8L409.8,55.8z M409.8,47c2.8,0,5.7-0.1,8.5-0.4
	c1.1,0,2.2-0.3,3.2-0.8c0.5-0.7,0.7-1.5,0.8-2.3c0.3-2.2,0.5-4.4,0.4-6.6c0-2.2-0.1-4.5-0.4-6.7c-0.1-0.8-0.3-1.6-0.8-2.3l0,0
	c-1-0.5-2.1-0.7-3.2-0.8c-2.8-0.3-5.7-0.4-8.5-0.4l0,0c-2.9,0-5.7,0.1-8.5,0.4c-1.1,0-2.2,0.3-3.2,0.8l0,0c0,0-0.1,0.1-0.1,0.2l0,0
	c-0.1,0.2-0.2,0.4-0.3,0.6c-0.6,1.5-0.8,4.3-0.8,8.3c0,2.2,0.1,4.4,0.4,6.6c0.1,0.8,0.3,1.6,0.8,2.3l0,0c0.1,0.1,0.2,0.1,0.3,0.1
	c0.3,0.1,0.5,0.2,0.8,0.3C401.1,46.7,404.7,47,409.8,47L409.8,47z M351.3,36.9c0,5.3,0.4,8.3,1.2,9l0,0c0.1,0.1,0.2,0.1,0.2,0.1
	c0.2,0.1,0.5,0.2,0.7,0.3c3,0.6,6.1,0.9,9.2,0.7c3,0,5.3-0.1,7-0.2c0.9,0,1.9-0.2,2.8-0.4c0.1,0,0.1-0.1,0.2-0.2l0,0
	c0.1-0.1,0.2-0.2,0.3-0.3c0.6-0.9,0.9-2.4,0.9-4.6v-1.7h9.3v1.7l0,0c0.1,2.5-0.2,5-0.9,7.4c-0.1,0.4-0.2,0.7-0.3,1
	c-0.6,1.5-1.6,2.8-2.9,3.7l0,0c-0.4,0.3-0.9,0.5-1.4,0.7s-1.1,0.4-1.6,0.5c-2.9,0.8-7.3,1.2-13.2,1.2c-3.4,0.1-6.9-0.2-10.3-0.8
	c-2.3-0.3-4.5-1.2-6.4-2.6c-1.6-1.6-2.6-3.7-3-5.9c-0.6-3.1-0.9-6.3-0.9-9.5c-0.1-3.2,0.2-6.4,0.9-9.5c0.4-2.2,1.4-4.3,3-5.9
	c1.8-1.4,4-2.4,6.4-2.7c3.4-0.6,6.9-0.8,10.3-0.8l0,0c3.3,0,6.7,0.1,10,0.5l1.3,0.2c1.7,0.2,3.4,0.8,4.9,1.6l0,0l0,0
	c0.8,0.5,1.4,1.1,1.9,1.9c0.6,0.8,1,1.7,1.3,2.7c0.7,2.4,1,4.9,0.9,7.4v1.7h-9.2v-1.7c0-2.9-0.3-4.5-1-4.8l0,0c-1-0.3-2-0.5-3.1-0.6
	c-1.7-0.2-4.1-0.2-7.1-0.2c-6,0-9.3,0.4-10.1,1.1l0,0c-0.4,0.7-0.7,1.5-0.8,2.4C351.4,32.5,351.3,34.8,351.3,36.9L351.3,36.9z
	 M303.8,18.9h33.7v8.7h-26.2v5.1h25.3v8.7h-25.3V47h26.2v8.8h-35.4V18.9H303.8z M265.6,18.9h7.5V47H298v8.7h-34V18.9H265.6z
	 M225.2,18.9H259v8.7h-26.2v5.1h25.3v8.7h-25.3V47H259v8.8h-35.4V18.9H225.2z M182.7,18.9h36.6v8.7h-14.5v28.1h-9.2v-28h-14.5v-8.8
	L182.7,18.9z"/>
<path class="st0" d="M102.7,43.7c0,0.7,0.1,1.4,0.3,2.1c0.1,0.3,0.3,0.5,0.5,0.6c1,0.3,2.1,0.4,3.2,0.5c1.8,0.1,4.1,0.2,7.1,0.2h0.1
	c2.9,0,5.3-0.1,7.1-0.2l0.8-0.1l0,0c0.8,0,1.6-0.2,2.3-0.4l0,0c0.2-0.1,0.4-0.3,0.5-0.6c0.2-0.7,0.4-1.4,0.3-2.1V18.5h9.2v25.2l0,0
	c0.1,2-0.2,4.1-0.8,6.1c-0.1,0.3-0.2,0.6-0.3,0.8c-0.5,1.2-1.3,2.3-2.4,2.9c-2,1-4.1,1.6-6.3,1.8c-3.5,0.4-7.1,0.6-10.6,0.5l0,0
	c-3.5,0-7-0.1-10.4-0.4c-0.9-0.1-1.7-0.2-2.5-0.4c-1.3-0.2-2.5-0.6-3.6-1.1c-1.5-0.9-2.5-2.3-3-4c-0.6-2-0.9-4.1-0.8-6.2V18.5h9.2
	L102.7,43.7L102.7,43.7z M139.1,26v-7h37.8v7.6l-0.6,0.5l-23.8,20h24.4v8.8H138v-7.6l0.6-0.5l24.1-20h-23.6V26L139.1,26z"/>
</svg>
