<?xml version="1.0" encoding="utf-8"?>
<!-- Generator: Adobe Illustrator 21.0.2, SVG Export Plug-In . SVG Version: 6.00 Build 0)  -->
<svg version="1.1" id="Layer_1" xmlns="http://www.w3.org/2000/svg" xmlns:xlink="http://www.w3.org/1999/xlink" x="0px" y="0px"
	 viewBox="0 0 231.7 116" style="enable-background:new 0 0 231.7 116;" xml:space="preserve">
<style type="text/css">
	.st0{fill:#FFFFFF;}
	.st1{fill:none;stroke:#FFFFFF;stroke-width:2.5;stroke-linecap:round;stroke-linejoin:round;stroke-miterlimit:10;}
</style>
<g>
	<path class="st0" d="M58,2.5c30.6,0,55.5,24.9,55.5,55.5S88.6,113.5,58,113.5S2.5,88.6,2.5,58S27.4,2.5,58,2.5 M58,0
		C26,0,0,26,0,58s26,58,58,58s58-26,58-58S90,0,58,0L58,0z"/>
</g>
<path class="st0" d="M86,41.2c-0.7-12-10.6-21.6-22.5-21.6c-7.2,0-14.3,3.6-18.6,9.3c-0.1-0.1-0.2-0.1-0.3-0.1
	c-0.3-0.1-0.5-0.2-0.8-0.4c-0.2-0.1-0.3-0.1-0.5-0.2c-0.3-0.1-0.5-0.2-0.8-0.3c-0.2,0-0.3-0.1-0.5-0.1c-0.3-0.1-0.6-0.1-0.9-0.2
	c-0.1,0-0.3,0-0.4-0.1c-0.4,0-0.9-0.1-1.3-0.1c-6.6,0-12,5.4-12,12c0,0.2,0,0.3,0,0.5v0c-5.5,3-9.4,9.4-9.4,15.7
	c0,9.4,7.7,17.1,17.1,17.1h32.7c0.1,0,0.3,0,0.4,0l0.1,0l0.2,0c0.1,0,0.3,0,0.4,0H82c8.8,0,16-7.2,16-16C98,49.6,92.9,43,86,41.2z
	 M82,70.3H68.9c-0.1,0-0.2,0-0.2,0l-0.4,0l-0.3,0c-0.1,0-0.2,0-0.2,0H35.1c-8,0-14.5-6.5-14.5-14.5c0-5.5,3.6-11.3,8.6-13.7l0.8-0.4
	v-0.8c0-0.2,0-0.3,0-0.5l0-0.2l0-0.3c0-0.1,0-0.2,0-0.3c0-5.1,4.2-9.3,9.3-9.3c0.4,0,0.8,0,1.2,0.1c0.1,0,0.2,0,0.3,0
	c0.4,0.1,0.7,0.1,1.1,0.2c0,0,0.1,0,0.1,0c0.4,0.1,0.8,0.3,1.1,0.4c0.1,0,0.2,0.1,0.3,0.1c0.3,0.2,0.6,0.3,0.9,0.5
	c2.6,1.7,4.3,4.6,4.3,7.8c0,0.7,0.6,1.3,1.3,1.3s1.3-0.6,1.3-1.3c0-3.7-1.7-7-4.3-9.2c3.8-5,10.1-8.2,16.4-8.2
	c10.3,0,18.9,8.2,19.8,18.5c-1.4-0.1-3.4-0.1-5.4,0.2c-0.7,0.1-1.2,0.8-1.1,1.5c0.1,0.7,0.7,1.1,1.3,1.1c0.1,0,0.1,0,0.2,0
	c3-0.4,6.1,0,6.2,0c6.2,1.2,10.9,6.9,10.9,13.3C95.3,64.3,89.3,70.3,82,70.3z"/>
<polygon class="st1" points="48.3,76.5 40.2,87.3 56.4,87.3 "/>
<polygon class="st1" points="67.7,90.8 75.8,80.1 59.6,80.1 "/>
<g>
	<path class="st0" d="M126.7,40.6c0-0.6,0.2-1.1,0.6-1.5c0.4-0.4,0.9-0.6,1.6-0.6c0.7,0,1.2,0.2,1.6,0.6c0.4,0.4,0.6,0.9,0.6,1.5
		c0,0.6-0.2,1.1-0.6,1.5c-0.4,0.4-0.9,0.6-1.6,0.6c-0.7,0-1.2-0.2-1.6-0.6C126.9,41.7,126.7,41.2,126.7,40.6z M130.4,77h-3.1V48.8
		h3.1V77z"/>
	<path class="st0" d="M137.3,77V39H148c3.1,0,5.9,0.7,8.4,2.1c2.5,1.4,4.4,3.4,5.8,6.1c1.4,2.6,2.1,5.7,2.1,9v3.5
		c0,3.4-0.7,6.4-2.1,9c-1.4,2.6-3.3,4.7-5.8,6.1c-2.5,1.4-5.4,2.1-8.6,2.1H137.3z M140.5,41.7v32.6h7.2c4,0,7.2-1.3,9.6-4
		c2.4-2.7,3.6-6.2,3.6-10.8v-3.3c0-4.4-1.2-7.9-3.6-10.5c-2.4-2.6-5.5-4-9.4-4H140.5z"/>
	<path class="st0" d="M187.1,77c-0.3-0.9-0.5-2.2-0.6-3.9c-1.1,1.4-2.5,2.5-4.2,3.3c-1.7,0.8-3.5,1.2-5.4,1.2
		c-2.7,0-4.9-0.8-6.6-2.3c-1.7-1.5-2.5-3.4-2.5-5.7c0-2.7,1.1-4.9,3.4-6.5c2.3-1.6,5.5-2.4,9.6-2.4h5.7v-3.2c0-2-0.6-3.6-1.9-4.8
		c-1.2-1.2-3.1-1.7-5.4-1.7c-2.2,0-4,0.6-5.4,1.7c-1.4,1.1-2.1,2.5-2.1,4l-3.1,0c0-2.2,1-4.2,3.1-5.8c2.1-1.6,4.7-2.5,7.7-2.5
		c3.1,0,5.6,0.8,7.4,2.4c1.8,1.6,2.8,3.8,2.8,6.6v13.4c0,2.7,0.3,4.8,0.9,6.1V77H187.1z M177.3,74.7c2.1,0,4-0.5,5.6-1.5
		c1.6-1,2.8-2.4,3.6-4V63h-5.6c-3.1,0-5.5,0.6-7.3,1.7c-1.8,1.1-2.6,2.6-2.6,4.6c0,1.6,0.6,2.9,1.8,3.9
		C173.9,74.2,175.4,74.7,177.3,74.7z"/>
	<path class="st0" d="M200.5,41.5v7.2h5.8v2.6h-5.8v18.8c0,1.6,0.3,2.7,0.8,3.5c0.6,0.8,1.5,1.1,2.8,1.1c0.5,0,1.4-0.1,2.5-0.3
		l0.1,2.5c-0.8,0.3-1.9,0.4-3.3,0.4c-2.1,0-3.7-0.6-4.7-1.9c-1-1.2-1.5-3.1-1.5-5.5V51.3h-5.2v-2.6h5.2v-7.2H200.5z"/>
	<path class="st0" d="M228.3,77c-0.3-0.9-0.5-2.2-0.6-3.9c-1.1,1.4-2.5,2.5-4.2,3.3c-1.7,0.8-3.5,1.2-5.4,1.2
		c-2.7,0-4.9-0.8-6.6-2.3c-1.7-1.5-2.5-3.4-2.5-5.7c0-2.7,1.1-4.9,3.4-6.5c2.3-1.6,5.5-2.4,9.6-2.4h5.7v-3.2c0-2-0.6-3.6-1.9-4.8
		c-1.2-1.2-3.1-1.7-5.4-1.7c-2.2,0-4,0.6-5.4,1.7c-1.4,1.1-2.1,2.5-2.1,4l-3.1,0c0-2.2,1-4.2,3.1-5.8s4.7-2.5,7.7-2.5
		c3.1,0,5.6,0.8,7.4,2.4c1.8,1.6,2.8,3.8,2.8,6.6v13.4c0,2.7,0.3,4.8,0.9,6.1V77H228.3z M218.5,74.7c2.1,0,4-0.5,5.6-1.5
		c1.6-1,2.8-2.4,3.6-4V63h-5.6c-3.1,0-5.5,0.6-7.3,1.7c-1.8,1.1-2.6,2.6-2.6,4.6c0,1.6,0.6,2.9,1.8,3.9
		C215.1,74.2,216.6,74.7,218.5,74.7z"/>
</g>
</svg>
