<?xml version="1.0" encoding="utf-8"?>
<!-- Generator: Adobe Illustrator 21.0.2, SVG Export Plug-In . SVG Version: 6.00 Build 0)  -->
<svg version="1.1" id="Слой_1" xmlns="http://www.w3.org/2000/svg" xmlns:xlink="http://www.w3.org/1999/xlink" x="0px" y="0px"
	 viewBox="0 0 557.1 125" style="enable-background:new 0 0 557.1 125;" xml:space="preserve">
<style type="text/css">
	.st0{fill:#FFFFFF;}
	.st1{display:none;fill:#62439A;}
	.st2{display:none;fill:#2D3031;}
</style>
<g>
	<path class="st0" d="M122.5,11.5c-0.3-4.3-2.3-7.5-6.3-9c-4-1.6-7.6-0.7-10.8,2.3c-0.4,0.4-0.9,0.9-1.3,1.3
		C79.3,30.9,54.5,55.7,29.7,80.5c-8.3,8.3-16.7,16.7-25,25c-2.7,2.7-3.7,6-2.6,9.7c1,3.7,3.5,6,7.2,7c1.1,0.3,2.3,0.3,3.5,0.3h98.8
		c0.3,0,0.7,0,1,0c3.4-0.2,6.1-1.6,8-4.3c1.3-1.9,1.8-4,1.8-6.2c0-16.6,0-33.2,0-49.8V12.8C122.5,12.4,122.5,11.9,122.5,11.5z
		 M117.2,76.1c0,1.5,0,3.1,0,4.6c0,1-0.6,1.6-1.6,1.6c-1.5,0.1-3.1,0.1-4.6,0c-1.1,0-1.6-0.6-1.7-1.7v-2.4c0-0.7,0-1.4,0-2.1
		c0-1.1,0.6-1.7,1.6-1.8c1.6-0.1,3.2-0.1,4.7,0C116.7,74.5,117.2,75.1,117.2,76.1z M109,11.1c0-1.1,0.6-1.6,1.7-1.6c1.5,0,3,0,4.5,0
		c1.1,0,1.7,0.6,1.7,1.7c0,0.7,0,1.5,0,2.2s0,1.5,0,2.2c0,1.1-0.6,1.7-1.7,1.8c-1.5,0-3,0-4.5,0c-1.1,0-1.7-0.6-1.7-1.6
		C108.9,14.2,108.9,12.6,109,11.1z M109,22.2c0-1.1,0.6-1.7,1.8-1.7c1.5,0,2.9,0,4.4,0c1.2,0,1.8,0.6,1.8,1.8c0,1.4,0,2.8,0,4.3
		c0,1.2-0.6,1.8-1.8,1.8c-0.7,0-1.5,0-2.2,0s-1.5,0-2.2,0c-1.2-0.1-1.8-0.6-1.8-1.7C108.9,25.2,108.9,23.7,109,22.2z M109.2,33
		c0-1,0.6-1.6,1.6-1.6c1.6,0,3.2,0,4.7,0c0.9,0,1.5,0.6,1.6,1.5c0.1,1.6,0.1,3.2,0,4.8c-0.1,0.9-0.7,1.4-1.6,1.5c-0.1,0-0.2,0-0.2,0
		h-2.1c-0.8,0-1.5,0-2.3,0c-1.1,0-1.7-0.6-1.7-1.7C109.1,36.1,109.1,34.6,109.2,33z M117.1,48.3c0,1.1-0.6,1.7-1.8,1.7
		c-0.7,0-1.5,0-2.2,0c-0.8,0-1.5,0-2.3,0c-1.1-0.1-1.7-0.6-1.7-1.7c0-1.5,0-3,0-4.5c0-1.1,0.6-1.7,1.8-1.7c1.5,0,3,0,4.5,0
		c1.1,0,1.7,0.6,1.7,1.7C117.2,45.3,117.2,46.8,117.1,48.3z M109.2,54.2c0.1-1.1,0.6-1.7,1.8-1.7c1.5,0,3,0,4.5,0
		c1,0,1.6,0.6,1.7,1.6c0.1,1.6,0.1,3.2,0,4.7c0,1-0.6,1.6-1.6,1.6c-1.5,0.1-3.1,0.1-4.6,0c-1.1,0-1.7-0.7-1.7-1.8c0-0.7,0-1.5,0-2.2
		C109.2,55.7,109.1,55,109.2,54.2z M109.2,65.2c0-1,0.6-1.6,1.6-1.6c1.6,0,3.2,0,4.7,0c1,0,1.5,0.6,1.6,1.5c0.1,1.6,0.1,3.3,0,4.9
		c0,0.9-0.7,1.4-1.6,1.5h-2.3c-0.8,0-1.5,0-2.3,0c-1.1-0.1-1.7-0.6-1.7-1.7C109.1,68.3,109.1,66.7,109.2,65.2z M109.4,86.8
		c0-1.1,0.6-1.7,1.7-1.7c1.5,0,3.1,0,4.6,0c1,0,1.5,0.6,1.6,1.6c0,0.8,0,1.5,0,2.3s0,1.5,0,2.3c-0.1,1.1-0.6,1.7-1.7,1.7
		c-1.5,0.1-3.1,0.1-4.6,0c-1,0-1.6-0.7-1.6-1.8C109.4,89.8,109.3,88.3,109.4,86.8z M117.4,113.9c0,1.2-0.6,1.7-1.7,1.7
		c-0.8,0-1.5,0-2.3,0c-0.7,0-1.5,0-2.2,0c-1.1,0-1.6-0.5-1.7-1.5c-0.1-1.6-0.1-3.2,0-4.8c0.1-1,0.6-1.5,1.7-1.5c1.5,0,3,0,4.5,0
		c1.1,0,1.7,0.6,1.7,1.8C117.5,111,117.5,112.4,117.4,113.9z M117.4,102.9c0,1.1-0.6,1.7-1.7,1.7c-1.5,0-3.1,0-4.6,0
		c-1,0-1.6-0.6-1.6-1.6c-0.1-1.6-0.1-3.2,0-4.7c0.1-1,0.6-1.5,1.7-1.6c1.5-0.1,3.1-0.1,4.6,0c1,0,1.6,0.7,1.6,1.7c0,0.7,0,1.5,0,2.2
		C117.4,101.3,117.5,102.1,117.4,102.9z"/>
	<path class="st1" d="M339-86.7c-0.3-4.3-2.3-7.5-6.3-9c-4-1.6-7.6-0.7-10.8,2.3c-0.4,0.4-0.9,0.9-1.3,1.3
		c-24.8,24.8-49.6,49.6-74.4,74.5c-8.3,8.3-16.7,16.7-25,25c-2.7,2.7-3.7,6-2.6,9.7c1,3.7,3.5,6,7.2,7c1.1,0.3,2.3,0.3,3.5,0.3h98.8
		c0.3,0,0.7,0,1,0c3.4-0.2,6.1-1.6,8-4.3c1.3-1.9,1.8-4,1.8-6.2c0-16.6,0-33.2,0-49.8v-49.4C339-85.8,339-86.2,339-86.7z M333.7-22
		c0,1.5,0,3.1,0,4.6c0,1-0.6,1.6-1.6,1.6c-1.5,0.1-3.1,0.1-4.6,0c-1.1,0-1.6-0.6-1.7-1.7v-2.4c0-0.7,0-1.4,0-2.1
		c0-1.1,0.6-1.7,1.6-1.8c1.6-0.1,3.2-0.1,4.7,0C333.2-23.6,333.7-23,333.7-22z M325.5-87c0-1.1,0.6-1.6,1.7-1.6c1.5,0,3,0,4.5,0
		c1.1,0,1.7,0.6,1.7,1.7c0,0.7,0,1.5,0,2.2s0,1.5,0,2.2c0,1.1-0.6,1.7-1.7,1.8c-1.5,0-3,0-4.5,0c-1.1,0-1.7-0.6-1.7-1.6
		C325.4-84,325.4-85.5,325.5-87z M325.4-75.9c0-1.1,0.6-1.7,1.8-1.7c1.5,0,2.9,0,4.4,0c1.2,0,1.8,0.6,1.8,1.8c0,1.4,0,2.8,0,4.3
		c0,1.2-0.6,1.8-1.8,1.8c-0.7,0-1.5,0-2.2,0s-1.5,0-2.2,0c-1.2-0.1-1.8-0.6-1.8-1.7C325.4-72.9,325.4-74.4,325.4-75.9z M325.6-65.1
		c0-1,0.6-1.6,1.6-1.6c1.6,0,3.2,0,4.7,0c0.9,0,1.5,0.6,1.6,1.5c0.1,1.6,0.1,3.2,0,4.8c-0.1,0.9-0.7,1.4-1.6,1.5c-0.1,0-0.2,0-0.2,0
		h-2.1c-0.8,0-1.5,0-2.3,0c-1.1,0-1.7-0.6-1.7-1.7C325.6-62,325.6-63.5,325.6-65.1z M333.6-49.8c0,1.1-0.6,1.7-1.8,1.7
		c-0.7,0-1.5,0-2.2,0c-0.8,0-1.5,0-2.3,0c-1.1-0.1-1.7-0.6-1.7-1.7c0-1.5,0-3,0-4.5c0-1.1,0.6-1.7,1.8-1.7c1.5,0,3,0,4.5,0
		c1.1,0,1.7,0.6,1.7,1.7C333.6-52.8,333.6-51.3,333.6-49.8z M325.6-43.9c0.1-1.1,0.6-1.7,1.8-1.7c1.5,0,3,0,4.5,0
		c1,0,1.6,0.6,1.7,1.6c0.1,1.6,0.1,3.2,0,4.7c0,1-0.6,1.6-1.6,1.6c-1.5,0.1-3.1,0.1-4.6,0c-1.1,0-1.7-0.7-1.7-1.8c0-0.7,0-1.5,0-2.2
		C325.6-42.4,325.6-43.2,325.6-43.9z M325.6-32.9c0-1,0.6-1.6,1.6-1.6c1.6,0,3.2,0,4.7,0c1,0,1.5,0.6,1.6,1.5c0.1,1.6,0.1,3.3,0,4.9
		c0,0.9-0.7,1.4-1.6,1.5h-2.3c-0.8,0-1.5,0-2.3,0c-1.1-0.1-1.7-0.6-1.7-1.7C325.6-29.9,325.6-31.4,325.6-32.9z M325.8-11.3
		c0-1.1,0.6-1.7,1.7-1.7c1.5,0,3.1,0,4.6,0c1,0,1.5,0.6,1.6,1.6c0,0.8,0,1.5,0,2.3s0,1.5,0,2.3c-0.1,1.1-0.6,1.7-1.7,1.7
		c-1.5,0.1-3.1,0.1-4.6,0c-1,0-1.6-0.7-1.6-1.8C325.8-8.3,325.8-9.8,325.8-11.3z M333.9,15.8c0,1.2-0.6,1.7-1.7,1.7
		c-0.8,0-1.5,0-2.3,0c-0.7,0-1.5,0-2.2,0c-1.1,0-1.6-0.5-1.7-1.5c-0.1-1.6-0.1-3.2,0-4.8c0.1-1,0.6-1.5,1.7-1.5c1.5,0,3,0,4.5,0
		c1.1,0,1.7,0.6,1.7,1.8C333.9,12.8,333.9,14.3,333.9,15.8z M333.9,4.8c0,1.1-0.6,1.7-1.7,1.7c-1.5,0-3.1,0-4.6,0
		c-1,0-1.6-0.6-1.6-1.6c-0.1-1.6-0.1-3.2,0-4.7c0.1-1,0.6-1.5,1.7-1.6c1.5-0.1,3.1-0.1,4.6,0c1,0,1.6,0.7,1.6,1.7c0,0.7,0,1.5,0,2.2
		S333.9,4,333.9,4.8z"/>
	<path class="st0" d="M56.8,42c-0.2-0.2-0.3-0.3-0.5-0.5c-7.1-7-14.2-13.9-21.3-20.8c-5.4-5.4-10.8-10.7-16.3-16
		C15.9,2,12.5,1,8.7,2.1c-4.3,1.3-7,5.2-7,9.9c0,27.2,0,54.4,0,81.6c0,0.3-0.1,0.6,0.1,1c0.4-0.1,0.6-0.5,0.9-0.7
		C20.6,77,38.4,60.1,56.2,43.3c0.2-0.2,0.4-0.4,0.6-0.6C57.1,42.4,57.1,42.2,56.8,42z M7.5,11.1c0-1,0.6-1.5,1.5-1.5
		c1.6,0,3.2,0,4.8,0c0.9,0,1.5,0.6,1.5,1.6c0,1.5,0,3.1,0,4.6c0,1.1-0.6,1.6-1.7,1.7c-0.8,0-1.5,0-2.3,0s-1.5,0-2.3,0
		c-1-0.1-1.6-0.6-1.6-1.6C7.4,14.2,7.4,12.6,7.5,11.1z M7.5,23.1c0-1.2,0.6-1.8,1.8-1.8c1.4,0,2.8,0,4.3,0c1.3,0,1.8,0.6,1.8,1.9
		c0,0.7,0,1.5,0,2.2s0,1.4,0,2.1c0,1.2-0.5,1.8-1.7,1.8c-1.5,0.1-3,0.1-4.5,0c-1.1,0-1.7-0.6-1.7-1.8C7.4,26,7.4,24.5,7.5,23.1z
		 M15.5,34.4v2.3c0,0.7,0,1.5,0,2.2c0,1.1-0.6,1.7-1.7,1.8c-1.5,0.1-3,0.1-4.5,0c-1.1,0-1.7-0.6-1.7-1.7c-0.1-1.5-0.1-3.1,0-4.6
		c0-1.1,0.6-1.6,1.7-1.6c1.5,0,3,0,4.5,0C14.9,32.7,15.5,33.3,15.5,34.4z M15.5,74.7c-0.1,1-0.6,1.6-1.6,1.6c-1.6,0-3.2,0-4.7,0
		c-0.9,0-1.5-0.6-1.6-1.5c-0.1-1.6-0.1-3.2,0-4.8c0-1,0.6-1.5,1.6-1.5c1.6-0.1,3.2-0.1,4.7,0c1,0,1.5,0.6,1.6,1.7c0,0.8,0,1.5,0,2.3
		C15.5,73.2,15.6,73.9,15.5,74.7z M15.5,62.3c-0.1,1-0.6,1.6-1.6,1.6c-1.6,0.1-3.2,0.1-4.7,0c-1,0-1.5-0.6-1.6-1.5
		c-0.1-1.6-0.1-3.3,0-4.9c0-0.9,0.6-1.5,1.6-1.5c1.6,0,3.2,0,4.7,0c1,0,1.5,0.6,1.6,1.6c0,0.8,0,1.5,0,2.3
		C15.5,60.8,15.6,61.6,15.5,62.3z M15.5,50.2c-0.1,1-0.6,1.6-1.6,1.6c-1.6,0.1-3.2,0.1-4.7,0c-1,0-1.6-0.6-1.6-1.6
		c-0.1-1.5-0.1-3.1,0-4.6c0-1.1,0.6-1.6,1.7-1.7c1.5,0,3,0,4.5,0c1.1,0,1.7,0.6,1.7,1.8c0,0.7,0,1.5,0,2.2
		C15.5,48.6,15.6,49.4,15.5,50.2z"/>
	<path class="st0" d="M155.9,57.1c1.4-1.3,2.8-2.5,4.4-3.5c3.6-2.3,7.5-3.6,11.7-3.5c2,0,4,0.3,5.8,1.1c3.1,1.2,5.3,3.3,6.6,6.3
		c0.2,0.4,0.4,0.8,0.5,1.2c0.4-0.2,0.5-0.5,0.7-0.8c4.3-5.2,9.8-7.8,16.5-7.8c1.4,0,2.8,0.2,4.1,0.5c5,1.2,7.9,4.5,9,9.5
		c0.3,1.5,0.5,3,0.5,4.6c0,11.2,0,22.4,0,33.6c0,0.2,0,0.5,0,0.7c0,0.3-0.2,0.4-0.5,0.4c-0.2,0-0.5,0-0.7,0c-3.5,0-7,0-10.5,0
		c-1.2,0-1.2,0-1.2-1.2c0-9.5,0-19.1,0-28.6c0-1.1,0-2.2-0.3-3.3c-0.7-2.9-2.7-4.6-5.7-4.9c-4.5-0.4-8,1.6-10.8,4.9
		c-0.4,0.5-0.4,1-0.4,1.6c0,8.5,0,17.1,0,25.6c0,1.5,0,3.1,0,4.6c0,1.3,0,1.2-1.3,1.2c-3.4,0-6.8,0-10.2,0c-1.4,0-1.3,0.1-1.3-1.3
		c0-9.5,0-19.1,0-28.6c0-1,0-2-0.2-3c-0.7-3.1-2.8-4.8-5.9-5.1c-4.5-0.3-7.9,1.8-10.6,5.1c-0.3,0.3-0.4,0.7-0.4,1.1
		c0,0.9,0,1.7,0,2.6c0,9.3,0,18.6,0,27.9c0,1.4,0.1,1.3-1.3,1.3c-3.5,0-6.9,0-10.4,0c-1,0-1.1,0-1.1-1.1c0-15.4,0-30.7,0-46.1
		c0-1.1,0-1.1,1.1-1.1c3.5,0,7,0,10.5,0c1.1,0,1.1,0,1.1,1C155.9,53.9,155.9,55.5,155.9,57.1z"/>
	<path class="st0" d="M414.7,55.9c0,0.1,0,0.2,0,0.3c0,0.2,0,0.4,0,0.6v41.7c0,0.9,0,0.9-1,0.9h-10.8c-0.9,0-0.9,0-0.9-0.9V34.3
		c0-1.8-0.2-1.5,1.6-1.5c3.2,0,6.4,0,9.6,0c1.3,0,1.5-0.1,1.5,0.5c0,0.2,0,0.5,0,1V45C414.7,48.7,414.7,52.3,414.7,55.9z"/>
	<path class="st0" d="M451.7,70.3c-1.7-8.8-6.6-15.1-15-18.4c-5-2-10.2-2.3-15.5-1.4c-5.2,0.9-9.5,3-12.9,6.3v36.9
		c0.9,0.9,1.9,1.7,3,2.4c4.5,3.1,9.6,4.4,16,4.4c1.1,0,3.1-0.1,5-0.5c8.3-1.8,14.4-6.4,17.7-14.3C452.2,80.8,452.7,75.6,451.7,70.3z
		 M436.7,83.6c-2.3,4.1-6.1,5.8-10.7,5.6s-7.9-2.3-10.1-6.4c-1.3-2.4-1.8-5-1.7-7.3c0-3,0.5-5.5,1.7-7.8c2.1-4,5.5-6.2,10.1-6.4
		c4.7-0.2,8.5,1.6,10.8,5.7C439.9,72.5,439.8,78.2,436.7,83.6z"/>
	<path class="st2" d="M488.8,0.6c-1.7-8.8-6.6-15.1-15-18.4c-5-2-10.2-2.3-15.5-1.4c-8.4,1.5-14.6,6.1-18.1,14
		c-0.5,1-0.9,2.1-1.2,3.2v15.1c1.5,5.4,4.5,9.9,9.4,13.3c4.5,3.1,9.6,4.4,16,4.4c1.1,0,3.1-0.1,5-0.5c8.3-1.8,14.4-6.4,17.7-14.3
		C489.3,11,489.8,5.9,488.8,0.6z M473.8,13.9c-2.3,4.1-6.1,5.8-10.7,5.6s-7.9-2.3-10.1-6.4c-1.3-2.4-1.8-5-1.7-7.3
		c0-3,0.5-5.5,1.7-7.8c2.1-4,5.5-6.2,10.1-6.4c4.7-0.2,8.5,1.6,10.8,5.7C476.9,2.8,476.9,8.4,473.8,13.9z"/>
	<path class="st0" d="M309,55.9c0,0.1,0,0.2,0,0.3c0,0.2,0,0.4,0,0.6v41.7c0,0.9,0,0.9,1,0.9h10.8c0.9,0,0.9,0,0.9-0.9V34.3
		c0-1.8,0.2-1.5-1.6-1.5c-3.2,0-6.4,0-9.6,0c-1.3,0-1.5-0.1-1.5,0.5c0,0.2,0,0.5,0,1V45C309,48.7,309,52.3,309,55.9z"/>
	<path class="st0" d="M273.7,85.7c3.4,7.9,9.4,12.5,17.7,14.3c2,0.4,3.9,0.6,5,0.5c6.3,0,11.4-1.3,16-4.4c4.8-3.4,7.9-7.9,9.4-13.3
		V67.7c-0.3-1.1-0.7-2.1-1.2-3.2c-3.5-7.9-9.7-12.4-18.1-14c-5.2-1-10.5-0.6-15.5,1.4c-8.4,3.3-13.3,9.6-15,18.4
		C271,75.6,271.5,80.8,273.7,85.7z M287,67.1c2.3-4.1,6.1-5.9,10.8-5.7c4.6,0.2,7.9,2.3,10.1,6.4c1.2,2.3,1.7,4.8,1.7,7.8
		c0,2.3-0.5,4.9-1.7,7.3c-2.1,4.1-5.5,6.2-10.1,6.4c-4.6,0.2-8.4-1.6-10.7-5.6C283.9,78.2,283.9,72.5,287,67.1z"/>
	<path class="st0" d="M504.2,70.3c-1.7-8.8-6.6-15.1-15-18.4c-5-2-10.2-2.3-15.5-1.4c-8.4,1.5-14.6,6.1-18.1,14
		c-2.2,4.8-2.7,9.9-1.9,15c1.1,6.9,4.3,12.6,10.1,16.6c4.5,3.1,9.6,4.4,16,4.4c1.1,0,3.1-0.1,5-0.5c8.3-1.8,14.4-6.4,17.7-14.3
		C504.7,80.8,505.3,75.6,504.2,70.3z M489.2,83.6c-2.3,4.1-6.1,5.8-10.7,5.6c-4.6-0.2-7.9-2.3-10.1-6.4c-1.3-2.4-1.8-5-1.7-7.3
		c0-3,0.5-5.5,1.7-7.8c2.1-4,5.5-6.2,10.1-6.4c4.7-0.2,8.5,1.6,10.8,5.7C492.4,72.5,492.4,78.2,489.2,83.6z"/>
	<path class="st0" d="M393.4,98.1c0-10,0-20,0-30c0-1.2-0.1-2.3-0.2-3.5c-0.9-6.2-4.2-10.4-10-12.7c-2.7-1.1-5.4-1.5-8.3-1.7
		c-5.6-0.4-10.9,0.5-16,2.7c-2.6,1.1-4.9,2.6-7,4.3c-0.3,0.3-0.6,0.5-0.3,1c1.5,2.6,3,5.2,4.5,7.8c0.6-0.2,0.9-0.6,1.3-0.9
		c4.2-3.3,9-4.8,14.3-4.5c2.1,0.1,4.2,0.7,6,1.9c1.9,1.3,3.1,3.1,3.2,5.5c0.1,2.2,0,4.4,0,6.6c-0.4,0-0.5-0.2-0.7-0.4
		c-1.4-1.3-2.9-2.4-4.6-3.1c-4.8-2-9.7-2.6-14.8-1.4c-3.4,0.8-6.4,2.3-8.7,5.1c-3.2,3.9-3.9,8.4-3,13.2c1,5.4,4.3,9,9.2,11.1
		c3.7,1.6,7.5,1.8,11.5,1.2c4-0.7,7.7-2.3,10.6-5.2c0.1-0.1,0.2-0.3,0.5-0.1v3.4c0,1.2,0,1.2,1.2,1.2h10.2
		C393.5,99.4,393.4,99.6,393.4,98.1z M380.7,83.9c-0.1,0.3,0,0.6,0,1c0,0.6,0,1.3,0,1.9c0.1,0.7-0.2,1.3-0.7,1.8
		c-0.6,0.5-1.2,1.1-1.9,1.5c-3.5,1.9-7.3,2.4-11.2,1.4c-0.8-0.2-1.6-0.6-2.3-1c-4.2-2.6-4.2-8.5-0.1-11.2c1.7-1.1,3.6-1.5,5.5-1.6
		c2.4-0.1,4.8,0.3,7,1.3c0.5,0.2,1,0.5,1.5,0.8C380,80.7,381.1,81.9,380.7,83.9z"/>
	<path class="st0" d="M269,66.7c-2.2-6.7-6.3-11.8-12.8-14.6c-4.6-2-9.5-2.5-14.4-1.6c-8.1,1.4-14.1,5.8-17.8,13.2
		c-2.7,5.3-3.3,11-2.2,16.8c1.6,8.6,6.5,14.7,14.6,18.1c8.2,3.4,19.7,2.2,27.2-2.2c1-0.6,2-1.3,2.9-2c0.5-0.4,0.5-0.6,0.1-1.1
		c-1.2-1.7-2.4-3.4-3.5-5.1c-0.5-0.8-1-1.5-1.7-2.4c-0.4,0.3-0.6,0.5-0.8,0.6c-4.8,3.4-10.2,4.9-16,3.6c-5-1.1-8.3-4.2-9.7-9.2
		c-0.4-1.4-0.4-1.5,1.1-1.5h32.8c0.3,0,0.7,0,1,0c0.5,0,0.7-0.2,0.7-0.7C270.5,74.6,270.3,70.6,269,66.7z M257.2,70.7
		c-3.7,0-7.3,0-11,0c-3.6,0-7.2,0-10.8,0c-1,0-1,0-0.8-1c1-4.5,3.5-7.7,8.1-9c2.9-0.8,5.8-0.7,8.6,0.4c3.9,1.5,6,4.6,6.8,8.7
		C258.2,70.6,258.1,70.7,257.2,70.7z"/>
	<path class="st0" d="M504.9,51.2c2.4,0,4.6,0,6.9,0c2.1,0,4.1,0,6.2,0c0.7,0,1.1,0.2,1.5,0.8c2.9,4.3,5.8,8.6,8.7,12.9
		c0.2,0.3,0.4,0.7,0.8,0.9c0.4-0.2,0.5-0.5,0.7-0.8c2.9-4.3,5.8-8.6,8.6-13c0.4-0.7,0.9-0.9,1.7-0.9c4,0,8,0,11.9,0c0.3,0,0.6,0,1,0
		c-0.1,0.5-0.4,0.9-0.7,1.2c-4.9,7.1-9.8,14.2-14.7,21.2c-0.8,1.2-0.8,0.8,0,2c5.2,7.5,10.5,15,15.8,22.6c0.2,0.4,0.5,0.7,0.8,1.3
		c-0.5,0-0.8,0-1.1,0c-4,0-8,0-12.1,0c-0.7,0-1.2-0.2-1.6-0.8c-3.2-4.8-6.4-9.5-9.6-14.2c-0.2-0.4-0.5-0.7-0.8-1.1
		c-0.5,0.2-0.7,0.7-0.9,1c-3.2,4.7-6.5,9.4-9.7,14.2c-0.5,0.7-1,0.9-1.8,0.9c-3.9,0-7.8,0-11.7,0c-0.3,0-0.7,0-1.1,0
		c0.1-0.6,0.5-0.9,0.7-1.3c5.2-7.5,10.4-15,15.6-22.5c0.8-1.2,0.8-0.8,0-2c-4.9-7.1-9.7-14.2-14.6-21.3
		C505.3,52.1,505,51.8,504.9,51.2z"/>
	<path class="st0" d="M330.4,75.4c0-7.5,0-14.9,0-22.4c0-0.3,0-0.6,0-0.9c0-0.9,0-0.9,1-0.9c3.6,0,7.2,0,10.8,0c0.9,0,0.9,0,0.9,0.9
		c0,0.2,0,0.4,0,0.6c0,15.1,0,30.2,0,45.3c0,1.7,0.2,1.5-1.5,1.5c-3.3,0-6.7,0-10,0c-1.2,0-1.2,0-1.2-1.2
		C330.4,90.6,330.4,83,330.4,75.4z"/>
	<path class="st0" d="M336.6,45.9c-4.2,0-7.6-3.5-7.6-7.7c0-4.1,3.5-7.5,7.6-7.4c4.3,0.1,7.6,3.3,7.6,7.6
		C344.3,42.6,340.8,45.9,336.6,45.9z"/>
</g>
</svg>
