<svg width="361" height="124" viewBox="0 0 361 124" fill="none" xmlns="http://www.w3.org/2000/svg">
<path d="M9.51182 4.65421C10.3324 6.07477 11.2463 7.81308 12.2535 9.86916C13.2606 11.9252 14.2864 14.0934 15.3308 16.3738C16.3752 18.6168 17.401 20.9159 18.4082 23.271C19.4526 25.5888 20.4038 27.7383 21.2617 29.7196C22.1196 27.7383 23.0522 25.5888 24.0593 23.271C25.0664 20.9159 26.0922 18.6168 27.1367 16.3738C28.1811 14.0934 29.2069 11.9252 30.214 9.86916C31.2211 7.81308 32.135 6.07477 32.9557 4.65421H39.3342C39.6699 7.49533 39.9869 10.5234 40.2853 13.7383C40.5838 16.9159 40.8449 20.1869 41.0687 23.5514C41.3298 26.8785 41.5536 30.243 41.7401 33.6449C41.9639 37.0094 42.1504 40.2991 42.2996 43.514H35.3616C35.2124 38.9907 35.0259 34.3365 34.8021 29.5514C34.6156 24.7664 34.3171 20.1308 33.9068 15.6449C33.4965 16.5047 33.0116 17.5327 32.4521 18.729C31.8926 19.9252 31.2957 21.2336 30.6616 22.6542C30.0275 24.0374 29.3747 25.4766 28.7033 26.972C28.0692 28.4673 27.4351 29.9252 26.8009 31.3458C26.2041 32.729 25.6446 34.0374 25.1224 35.271C24.6002 36.4673 24.1526 37.4953 23.7795 38.3551H18.5201C18.1471 37.4953 17.6994 36.4486 17.1772 35.215C16.655 33.9813 16.0768 32.6729 15.4427 31.2897C14.8459 29.8692 14.2118 28.4112 13.5404 26.9159C12.9062 25.4206 12.2721 23.9813 11.638 22.5981C11.0039 21.215 10.407 19.9252 9.84753 18.729C9.28801 17.4953 8.80309 16.4673 8.39278 15.6449C7.98247 20.1308 7.66541 24.7664 7.4416 29.5514C7.25509 34.3365 7.08724 38.9907 6.93803 43.514H0C0.149205 40.2991 0.31706 36.972 0.503566 33.5327C0.727374 30.0935 0.951181 26.6916 1.17499 23.3271C1.4361 19.9252 1.71586 16.6355 2.01427 13.4579C2.31268 10.2804 2.62974 7.34579 2.96545 4.65421H9.51182Z" fill="white"/>
<path d="M74.0685 14.1869C71.0471 25.3271 67.5407 35.4206 63.5495 44.4673C62.8035 46.1495 62.0388 47.5888 61.2555 48.785C60.4722 49.9813 59.5956 50.972 58.6258 51.757C57.6559 52.5421 56.5742 53.1028 55.3805 53.4393C54.1869 53.8131 52.8068 54 51.2401 54C50.1957 54 49.1512 53.8879 48.1068 53.6636C47.0997 53.4393 46.335 53.1963 45.8128 52.9346L47.0437 47.4953C48.3866 48.0187 49.7108 48.2804 51.0163 48.2804C52.7695 48.2804 54.131 47.8505 55.1008 46.9907C56.1079 46.1682 56.9845 44.8785 57.7305 43.1215C55.6044 39.0093 53.5528 34.5234 51.5758 29.6636C49.6362 24.8037 47.9016 19.6449 46.3723 14.1869H53.5901C53.9631 15.757 54.4107 17.4579 54.9329 19.2897C55.4924 21.1215 56.0893 22.9907 56.7234 24.8972C57.3575 26.7664 58.0289 28.6355 58.7377 30.5047C59.4464 32.3738 60.1551 34.1121 60.8638 35.7196C62.0575 32.3925 63.1765 28.8598 64.2209 25.1215C65.2654 21.3458 66.2166 17.7009 67.0745 14.1869H74.0685Z" fill="white"/>
<path d="M107.525 44.3551C104.877 44.3551 102.601 43.9813 100.699 43.2336C98.7966 42.4486 97.2113 41.3645 95.943 39.9813C94.7121 38.5981 93.7982 36.972 93.2014 35.1028C92.6046 33.2336 92.3062 31.1776 92.3062 28.9346V4.65421H99.412V28.2617C99.412 30.0187 99.5986 31.5327 99.9716 32.8037C100.382 34.0374 100.941 35.0467 101.65 35.8318C102.396 36.6168 103.254 37.1963 104.224 37.5701C105.231 37.9439 106.35 38.1308 107.581 38.1308C108.812 38.1308 109.931 37.9439 110.938 37.5701C111.945 37.1963 112.803 36.6168 113.512 35.8318C114.258 35.0467 114.817 34.0374 115.19 32.8037C115.601 31.5327 115.806 30.0187 115.806 28.2617V4.65421H122.912V28.9346C122.912 31.1776 122.595 33.2336 121.961 35.1028C121.364 36.972 120.431 38.5981 119.163 39.9813C117.932 41.3645 116.347 42.4486 114.407 43.2336C112.467 43.9813 110.173 44.3551 107.525 44.3551Z" fill="white"/>
<path d="M151.195 18.9533C150.449 19.7383 149.461 20.8411 148.23 22.2617C147.036 23.6823 145.75 25.271 144.369 27.028C142.989 28.7477 141.59 30.5607 140.173 32.4673C138.793 34.3364 137.543 36.1308 136.424 37.8505H151.531V43.514H128.255V39.3084C129.076 37.8131 130.102 36.1869 131.333 34.4299C132.564 32.6729 133.832 30.9159 135.137 29.1589C136.443 27.3645 137.73 25.6636 138.998 24.0561C140.304 22.4486 141.46 21.0467 142.467 19.8505H128.983V14.1869H151.195V18.9533Z" fill="white"/>
<path d="M156.882 6.44859L163.652 5.3271V14.1869H174.059V19.8505H163.652V31.7944C163.652 34.1495 164.025 35.8318 164.771 36.8411C165.517 37.8505 166.786 38.3551 168.576 38.3551C169.807 38.3551 170.889 38.2243 171.821 37.9626C172.791 37.7009 173.556 37.4579 174.115 37.2336L175.234 42.6168C174.451 42.9533 173.425 43.2897 172.157 43.6262C170.889 44 169.397 44.1869 167.681 44.1869C165.592 44.1869 163.839 43.9065 162.421 43.3458C161.041 42.785 159.941 41.9813 159.12 40.9346C158.299 39.8505 157.721 38.5607 157.386 37.0654C157.05 35.5327 156.882 33.7944 156.882 31.8505V6.44859Z" fill="white"/>
<path d="M178.49 28.9907C178.49 26.4112 178.863 24.1495 179.609 22.2056C180.392 20.2617 181.418 18.6542 182.686 17.3832C183.954 16.0748 185.409 15.1028 187.05 14.4673C188.691 13.7944 190.37 13.4579 192.086 13.4579C196.114 13.4579 199.248 14.7103 201.486 17.215C203.761 19.7196 204.899 23.4579 204.899 28.4299C204.899 28.8037 204.88 29.2337 204.843 29.7196C204.843 30.1682 204.824 30.5795 204.787 30.9533H185.484C185.67 33.3084 186.491 35.1402 187.945 36.4486C189.437 37.7196 191.582 38.3551 194.38 38.3551C196.021 38.3551 197.513 38.2056 198.856 37.9065C200.236 37.6075 201.318 37.2897 202.101 36.9533L202.996 42.5047C202.623 42.6916 202.101 42.8972 201.43 43.1215C200.796 43.3084 200.05 43.4766 199.192 43.6262C198.371 43.8131 197.476 43.9626 196.506 44.0748C195.536 44.1869 194.548 44.243 193.541 44.243C190.967 44.243 188.729 43.8692 186.826 43.1215C184.924 42.3364 183.357 41.271 182.126 39.9252C180.895 38.5421 179.982 36.9346 179.385 35.1028C178.788 33.2336 178.49 31.1963 178.49 28.9907ZM198.129 25.9626C198.129 25.028 197.998 24.1495 197.737 23.3271C197.476 22.4673 197.084 21.7383 196.562 21.1402C196.077 20.5047 195.462 20.0187 194.716 19.6823C194.007 19.3084 193.149 19.1215 192.142 19.1215C191.097 19.1215 190.183 19.3271 189.4 19.7383C188.617 20.1121 187.945 20.6168 187.386 21.2523C186.864 21.8878 186.453 22.6168 186.155 23.4393C185.857 24.2617 185.651 25.1028 185.539 25.9626H198.129Z" fill="white"/>
<path d="M222.26 44.0748C220.246 44.0374 218.567 43.8131 217.224 43.4019C215.919 42.9907 214.874 42.4112 214.091 41.6636C213.308 40.8785 212.748 39.9252 212.413 38.8037C212.114 37.6449 211.965 36.3365 211.965 34.8785V1.12149L218.735 0V33.5888C218.735 34.4112 218.791 35.1028 218.903 35.6636C219.052 36.2243 219.295 36.7103 219.63 37.1215C219.966 37.4953 220.414 37.7944 220.973 38.0187C221.57 38.2056 222.316 38.3551 223.211 38.4673L222.26 44.0748Z" fill="white"/>
<path d="M227.065 28.9907C227.065 26.4112 227.438 24.1495 228.184 22.2056C228.967 20.2617 229.993 18.6542 231.261 17.3832C232.53 16.0748 233.984 15.1028 235.626 14.4673C237.267 13.7944 238.945 13.4579 240.661 13.4579C244.69 13.4579 247.823 14.7103 250.061 17.215C252.337 19.7196 253.474 23.4579 253.474 28.4299C253.474 28.8037 253.456 29.2337 253.418 29.7196C253.418 30.1682 253.4 30.5795 253.362 30.9533H234.059C234.245 33.3084 235.066 35.1402 236.521 36.4486C238.013 37.7196 240.158 38.3551 242.955 38.3551C244.596 38.3551 246.089 38.2056 247.431 37.9065C248.812 37.6075 249.893 37.2897 250.677 36.9533L251.572 42.5047C251.199 42.6916 250.677 42.8972 250.005 43.1215C249.371 43.3084 248.625 43.4766 247.767 43.6262C246.946 43.8131 246.051 43.9626 245.081 44.0748C244.112 44.1869 243.123 44.243 242.116 44.243C239.542 44.243 237.304 43.8692 235.402 43.1215C233.499 42.3364 231.933 41.271 230.702 39.9252C229.471 38.5421 228.557 36.9346 227.96 35.1028C227.363 33.2336 227.065 31.1963 227.065 28.9907ZM246.704 25.9626C246.704 25.028 246.573 24.1495 246.312 23.3271C246.051 22.4673 245.66 21.7383 245.137 21.1402C244.652 20.5047 244.037 20.0187 243.291 19.6823C242.582 19.3084 241.724 19.1215 240.717 19.1215C239.673 19.1215 238.759 19.3271 237.976 19.7383C237.192 20.1121 236.521 20.6168 235.961 21.2523C235.439 21.8878 235.029 22.6168 234.73 23.4393C234.432 24.2617 234.227 25.1028 234.115 25.9626H246.704Z" fill="white"/>
<path d="M259.03 28.8785C259.03 26.7103 259.365 24.6916 260.037 22.8224C260.708 20.9159 261.659 19.271 262.89 17.8878C264.159 16.5047 265.688 15.4206 267.478 14.6355C269.269 13.8505 271.283 13.4579 273.521 13.4579C276.281 13.4579 278.893 13.9626 281.354 14.972L279.9 20.5234C279.116 20.1869 278.221 19.9066 277.214 19.6823C276.244 19.4579 275.2 19.3458 274.081 19.3458C271.432 19.3458 269.418 20.1869 268.038 21.8692C266.658 23.514 265.968 25.8505 265.968 28.8785C265.968 31.7944 266.62 34.1122 267.926 35.8318C269.232 37.514 271.432 38.3551 274.528 38.3551C275.685 38.3551 276.822 38.243 277.941 38.0187C279.06 37.7944 280.03 37.514 280.851 37.1776L281.802 42.785C281.056 43.1589 279.918 43.4953 278.389 43.7944C276.897 44.0935 275.349 44.243 273.745 44.243C271.246 44.243 269.064 43.8692 267.199 43.1215C265.371 42.3364 263.841 41.271 262.611 39.9252C261.417 38.5421 260.522 36.9159 259.925 35.0467C259.328 33.1402 259.03 31.0841 259.03 28.8785Z" fill="white"/>
<path d="M312.908 28.8224C312.908 31.1402 312.572 33.2523 311.901 35.1589C311.229 37.0654 310.278 38.6916 309.047 40.0374C307.816 41.3832 306.324 42.4299 304.571 43.1776C302.855 43.9252 300.953 44.2991 298.864 44.2991C296.775 44.2991 294.873 43.9252 293.157 43.1776C291.441 42.4299 289.967 41.3832 288.737 40.0374C287.506 38.6916 286.536 37.0654 285.827 35.1589C285.156 33.2523 284.82 31.1402 284.82 28.8224C284.82 26.5047 285.156 24.4112 285.827 22.5421C286.536 20.6355 287.506 19.0094 288.737 17.6636C290.005 16.3178 291.497 15.2897 293.213 14.5794C294.929 13.8318 296.812 13.4579 298.864 13.4579C300.915 13.4579 302.799 13.8318 304.515 14.5794C306.268 15.2897 307.76 16.3178 308.991 17.6636C310.222 19.0094 311.173 20.6355 311.845 22.5421C312.553 24.4112 312.908 26.5047 312.908 28.8224ZM305.97 28.8224C305.97 25.9065 305.336 23.6075 304.067 21.9252C302.836 20.2056 301.102 19.3458 298.864 19.3458C296.626 19.3458 294.873 20.2056 293.604 21.9252C292.373 23.6075 291.758 25.9065 291.758 28.8224C291.758 31.7757 292.373 34.1122 293.604 35.8318C294.873 37.5514 296.626 38.4112 298.864 38.4112C301.102 38.4112 302.836 37.5514 304.067 35.8318C305.336 34.1122 305.97 31.7757 305.97 28.8224Z" fill="white"/>
<path d="M336.556 28.0935C336.556 25.028 336.165 22.8224 335.381 21.4766C334.635 20.0935 333.218 19.4019 331.129 19.4019C330.383 19.4019 329.562 19.4579 328.667 19.5701C327.772 19.6823 327.1 19.7757 326.653 19.8505V43.514H319.883V15.1402C321.188 14.7664 322.885 14.4112 324.974 14.0748C327.1 13.7383 329.338 13.5701 331.688 13.5701C333.703 13.5701 335.344 13.8318 336.612 14.3551C337.918 14.8785 338.999 15.5701 339.857 16.4299C340.268 16.1308 340.79 15.8131 341.424 15.4766C342.058 15.1402 342.767 14.8411 343.55 14.5794C344.333 14.2804 345.154 14.0374 346.012 13.8505C346.907 13.6635 347.802 13.5701 348.698 13.5701C350.973 13.5701 352.838 13.9065 354.293 14.5794C355.785 15.215 356.941 16.1308 357.762 17.3271C358.62 18.486 359.198 19.9066 359.496 21.5888C359.832 23.2337 360 25.0467 360 27.028V43.514H353.23V28.0935C353.23 25.028 352.857 22.8224 352.111 21.4766C351.365 20.0935 349.929 19.4019 347.802 19.4019C346.721 19.4019 345.695 19.5888 344.725 19.9626C343.755 20.2991 343.028 20.6355 342.543 20.972C342.841 21.9066 343.047 22.8972 343.158 23.9439C343.27 24.9906 343.326 26.1122 343.326 27.3084V43.514H336.556V28.0935Z" fill="white"/>
<path d="M64.1619 95.6314C63.7193 96.0006 63.1675 96.1852 62.5068 96.1852C61.9935 96.1852 61.5862 96.0686 61.2846 95.8354C60.9767 95.6087 60.8227 95.2978 60.8227 94.9026C60.8227 94.0928 61.4226 93.6491 62.6222 93.5713L64.8452 93.4158V94.2029C64.8452 94.7795 64.6174 95.2556 64.1619 95.6314Z" fill="white"/>
<path d="M76.4409 95.0969C76.0047 95.6735 75.4209 95.9618 74.6896 95.9618C73.971 95.9618 73.3937 95.6735 72.9574 95.0969C72.5212 94.5139 72.303 93.743 72.303 92.7842C72.303 91.8254 72.5212 91.0545 72.9574 90.4715C73.3937 89.8885 73.971 89.597 74.6896 89.597C75.4145 89.597 75.9983 89.8852 76.4409 90.4618C76.8772 91.0448 77.0953 91.8157 77.0953 92.7745C77.0953 93.7462 76.8772 94.5204 76.4409 95.0969Z" fill="white"/>
<path d="M88.412 95.0969C87.9758 95.6735 87.392 95.9618 86.6606 95.9618C85.9421 95.9618 85.3647 95.6735 84.9285 95.0969C84.4922 94.5139 84.2741 93.743 84.2741 92.7842C84.2741 91.8254 84.4922 91.0545 84.9285 90.4715C85.3647 89.8885 85.9421 89.597 86.6606 89.597C87.3856 89.597 87.9694 89.8852 88.412 90.4618C88.8483 91.0448 89.0664 91.8157 89.0664 92.7745C89.0664 93.7462 88.8483 94.5204 88.412 95.0969Z" fill="white"/>
<path d="M117.377 95.2524C116.96 95.8354 116.38 96.127 115.636 96.127C114.891 96.127 114.311 95.8354 113.894 95.2524C113.47 94.6629 113.259 93.8369 113.259 92.7745C113.259 91.725 113.47 90.9023 113.894 90.3063C114.311 89.7168 114.891 89.422 115.636 89.422C116.373 89.422 116.951 89.7168 117.368 90.3063C117.791 90.9023 118.003 91.725 118.003 92.7745C118.003 93.8369 117.794 94.6629 117.377 95.2524Z" fill="white"/>
<path d="M132.457 90.0051C132.887 89.5775 133.422 89.3637 134.064 89.3637C134.718 89.3637 135.251 89.5743 135.661 89.9954C136.072 90.4164 136.29 90.9768 136.316 91.6765H131.745C131.796 90.9898 132.033 90.4326 132.457 90.0051Z" fill="white"/>
<path fill-rule="evenodd" clip-rule="evenodd" d="M1 63.6337C1 59.97 3.9412 57 7.56934 57H169.175C172.803 57 175.745 59.97 175.745 63.6337V117.366C175.745 121.03 172.803 124 169.175 124H7.56934C3.94119 124 1 121.03 1 117.366V63.6337ZM36.85 91.4749C36.8934 96.106 40.8759 97.7042 41.0663 97.7806L41.073 97.7833L41.0678 97.8001C40.9969 98.0307 40.3639 100.091 38.8955 102.218C37.5841 104.117 36.2229 106.009 34.0788 106.049C33.0496 106.067 32.3616 105.772 31.6461 105.466C30.897 105.145 30.1179 104.811 28.8857 104.811C27.596 104.811 26.7811 105.154 25.996 105.486C25.3153 105.773 24.6569 106.051 23.7307 106.087C21.661 106.165 20.085 104.033 18.7626 102.141C16.0606 98.27 13.9956 91.2027 16.7683 86.4322C18.1457 84.0631 20.6073 82.5629 23.2791 82.5245C24.4314 82.5027 25.547 82.9411 26.5236 83.325C27.2694 83.6181 27.9341 83.8793 28.4721 83.8793C28.9543 83.8793 29.6008 83.6266 30.3547 83.3319C31.5423 82.8678 32.9966 82.2994 34.4955 82.4499C35.5214 82.4922 38.4012 82.8605 40.2504 85.5425L40.2372 85.5506C39.9667 85.7135 36.815 87.6119 36.85 91.4749ZM32.8904 79.889C33.9892 78.5711 34.7287 76.7364 34.527 74.9109C32.9431 74.974 31.0279 75.9567 29.8919 77.2739C28.8738 78.4403 27.9821 80.3073 28.2227 82.0966C29.9881 82.232 31.7915 81.2077 32.8904 79.889ZM59.0425 97.3708C59.7097 97.9603 60.5597 98.255 61.5926 98.255C62.2854 98.255 62.9238 98.0996 63.5076 97.7886C64.1106 97.4647 64.5533 97.0274 64.8355 96.4768H64.8933V98.1287H67.607V90.7922C67.607 89.7233 67.1964 88.8649 66.3752 88.2171C65.5541 87.5693 64.4634 87.2454 63.1034 87.2454C61.7818 87.2454 60.7008 87.566 59.8604 88.2074C59.0264 88.8422 58.5902 89.6715 58.5517 90.695H61.121C61.1916 90.2998 61.3937 89.9824 61.7273 89.7427C62.0673 89.4965 62.4875 89.3734 62.9879 89.3734C63.5717 89.3734 64.0272 89.5095 64.3544 89.7816C64.6816 90.0601 64.8452 90.4553 64.8452 90.9671V91.6765L62.1988 91.8416C60.8388 91.9259 59.8059 92.2368 59.1002 92.7745C58.3817 93.3252 58.0224 94.0831 58.0224 95.0483C58.0224 95.9942 58.3624 96.7683 59.0425 97.3708ZM78.8082 88.7613C78.032 87.7895 76.9702 87.3036 75.623 87.3036C74.8788 87.3036 74.2148 87.4786 73.631 87.8284C73.0472 88.1782 72.6142 88.6544 72.3319 89.2568H72.2742V87.43H69.5027V101.491H72.3127V96.331H72.3704C72.9799 97.6137 74.0769 98.255 75.6615 98.255C76.9895 98.255 78.0416 97.7659 78.8178 96.7877C79.5877 95.8095 79.9726 94.4718 79.9726 92.7745C79.9726 91.0772 79.5845 89.7395 78.8082 88.7613ZM90.7793 88.7613C90.0031 87.7895 88.9413 87.3036 87.5941 87.3036C86.8499 87.3036 86.1859 87.4786 85.6021 87.8284C85.0183 88.1782 84.5853 88.6544 84.303 89.2568H84.2453V87.43H81.4738V101.491H84.2837V96.331H84.3415C84.9509 97.6137 86.048 98.255 87.6326 98.255C88.9605 98.255 90.0127 97.7659 90.7889 96.7877C91.5588 95.8095 91.9437 94.4718 91.9437 92.7745C91.9437 91.0772 91.5556 89.7395 90.7793 88.7613ZM94.4746 88.1588C93.6662 88.7677 93.2621 89.5743 93.2621 90.5784C93.2621 92.1591 94.2693 93.1794 96.2837 93.6393L98.2372 94.0863C98.7183 94.2029 99.0616 94.3422 99.2669 94.5042C99.4657 94.6661 99.5652 94.8864 99.5652 95.1649C99.5652 95.5148 99.4048 95.7901 99.084 95.9909C98.7632 96.1982 98.3238 96.3018 97.7657 96.3018C96.5596 96.3018 95.8859 95.8322 95.7448 94.8929H93.0022C93.0728 95.9358 93.5219 96.7618 94.3495 97.3708C95.1963 97.9991 96.3094 98.3134 97.6887 98.3134C99.0808 98.3134 100.207 97.9991 101.066 97.3708C101.926 96.7359 102.356 95.9002 102.356 94.8637C102.356 94.0669 102.125 93.445 101.663 92.998C101.208 92.551 100.447 92.2044 99.3823 91.9583L97.3904 91.521C96.4473 91.3007 95.9758 90.9282 95.9758 90.4035C95.9758 90.0601 96.1297 89.7816 96.4377 89.5678C96.7456 89.3605 97.153 89.2568 97.6598 89.2568C98.1987 89.2568 98.6317 89.3799 98.9589 89.6261C99.2861 89.8787 99.4657 90.2156 99.4978 90.6367H102.096C102.077 89.6131 101.666 88.7936 100.864 88.1782C100.062 87.5563 99.007 87.2454 97.6983 87.2454C96.3575 87.2454 95.2829 87.5498 94.4746 88.1588ZM107.379 87.43V85.0493H104.569V87.43H103.135V89.5775H104.569V95.2427C104.569 96.2857 104.832 97.0339 105.358 97.4874C105.884 97.9408 106.76 98.1676 107.985 98.1676C108.505 98.1676 108.957 98.1287 109.342 98.051V95.952C109.15 95.9844 108.916 96.0006 108.64 96.0006C107.799 96.0006 107.379 95.5925 107.379 94.7762V89.5775H109.342V87.43H107.379ZM111.815 96.8363C112.752 97.821 114.025 98.3134 115.636 98.3134C117.252 98.3134 118.526 97.8242 119.456 96.846C120.393 95.8614 120.861 94.5042 120.861 92.7745C120.861 91.0643 120.389 89.7135 119.446 88.7224C118.51 87.7377 117.24 87.2454 115.636 87.2454C114.038 87.2454 112.768 87.7377 111.825 88.7224C110.882 89.72 110.41 91.0707 110.41 92.7745C110.41 94.4977 110.879 95.8516 111.815 96.8363ZM125.086 87.43H122.372V98.1287H125.182V92.1429C125.182 91.3914 125.381 90.8051 125.778 90.384C126.176 89.963 126.731 89.7524 127.443 89.7524C127.867 89.7524 128.203 89.8107 128.454 89.9273V87.4106C128.242 87.3393 127.979 87.3036 127.665 87.3036C126.349 87.3036 125.509 87.9839 125.143 89.3443H125.086V87.43ZM137.393 97.3611C138.272 96.7327 138.789 95.9002 138.943 94.8637H136.354C136.219 95.2783 135.956 95.6022 135.565 95.8354C135.18 96.0751 134.721 96.195 134.189 96.195C133.451 96.195 132.855 95.9585 132.399 95.4856C131.944 95.0062 131.716 94.3811 131.716 93.6102V93.4353H139.029V92.5607C139.029 90.9347 138.577 89.6423 137.672 88.6835C136.774 87.7247 135.562 87.2454 134.035 87.2454C132.482 87.2454 131.244 87.7507 130.32 88.7613C129.403 89.7654 128.944 91.1193 128.944 92.8231C128.944 94.5269 129.406 95.8678 130.33 96.846C131.26 97.8242 132.531 98.3134 134.141 98.3134C135.43 98.3134 136.515 97.9959 137.393 97.3611Z" fill="white"/>
<path d="M246.9 91.4141H249.007C249.841 91.4141 250.489 91.197 250.951 90.763C251.413 90.329 251.644 89.7135 251.644 88.9167C251.644 88.1199 251.413 87.5045 250.951 87.0704C250.496 86.6429 249.851 86.4291 249.017 86.4291H246.9V91.4141Z" fill="white"/>
<path d="M265.03 96.1852C265.691 96.1852 266.242 96.0006 266.685 95.6314C267.141 95.2556 267.368 94.7795 267.368 94.2029V93.4158L265.145 93.5713C263.946 93.6491 263.346 94.0928 263.346 94.9026C263.346 95.2978 263.5 95.6087 263.808 95.8354C264.109 96.0686 264.517 96.1852 265.03 96.1852Z" fill="white"/>
<path d="M304.388 96.1852C305.049 96.1852 305.601 96.0006 306.043 95.6314C306.499 95.2556 306.727 94.7795 306.727 94.2029V93.4158L304.504 93.5713C303.304 93.6491 302.704 94.0928 302.704 94.9026C302.704 95.2978 302.858 95.6087 303.166 95.8354C303.468 96.0686 303.875 96.1852 304.388 96.1852Z" fill="white"/>
<path d="M333.777 89.3637C333.135 89.3637 332.6 89.5775 332.17 90.0051C331.747 90.4326 331.509 90.9898 331.458 91.6765H336.029C336.003 90.9768 335.785 90.4164 335.374 89.9954C334.964 89.5743 334.431 89.3637 333.777 89.3637Z" fill="white"/>
<path fill-rule="evenodd" clip-rule="evenodd" d="M186.255 63.6337C186.255 59.97 189.197 57 192.825 57H354.431C358.059 57 361 59.97 361 63.6337V117.366C361 121.03 358.059 124 354.431 124H192.825C189.197 124 186.255 121.03 186.255 117.366V63.6337ZM249.787 84.1067C251.218 84.1067 252.376 84.5472 253.261 85.4282C254.153 86.3093 254.598 87.4689 254.598 88.907C254.598 90.3387 254.14 91.4983 253.222 92.3858C252.305 93.2668 251.112 93.7073 249.643 93.7073H246.9V98.1287H243.994V84.1067H249.787ZM256.186 83.4362H258.996V98.1287H256.186V83.4362ZM264.116 98.255C263.083 98.255 262.233 97.9603 261.566 97.3708C260.886 96.7683 260.546 95.9942 260.546 95.0483C260.546 94.0831 260.905 93.3252 261.623 92.7745C262.329 92.2368 263.362 91.9259 264.722 91.8416L267.368 91.6765V90.9671C267.368 90.4553 267.205 90.0601 266.877 89.7816C266.55 89.5095 266.095 89.3734 265.511 89.3734C265.011 89.3734 264.59 89.4965 264.25 89.7427C263.917 89.9824 263.715 90.2998 263.644 90.695H261.075C261.113 89.6715 261.55 88.8422 262.384 88.2074C263.224 87.566 264.305 87.2454 265.626 87.2454C266.987 87.2454 268.077 87.5693 268.898 88.2171C269.719 88.8649 270.13 89.7233 270.13 90.7922V98.1287H267.416V96.4768H267.359C267.076 97.0274 266.634 97.4647 266.031 97.7886C265.447 98.0996 264.809 98.255 264.116 98.255ZM273.325 102.035C272.754 102.035 272.398 102.022 272.257 101.996V99.8001C272.353 99.8195 272.565 99.8292 272.892 99.8292C273.931 99.8292 274.557 99.4211 274.768 98.6049L274.865 98.1967L271.15 87.43H274.229L276.52 95.8257H276.578L278.877 87.43H281.841L278.175 98.3425C277.726 99.7029 277.136 100.658 276.404 101.209C275.679 101.76 274.653 102.035 273.325 102.035ZM282.9 87.43H285.614V89.3734H285.671C285.896 88.7256 286.281 88.2138 286.826 87.8381C287.365 87.4624 287.987 87.2745 288.693 87.2745C289.456 87.2745 290.095 87.4624 290.608 87.8381C291.121 88.2203 291.468 88.7613 291.647 89.4609H291.705C291.949 88.7872 292.366 88.256 292.956 87.8673C293.546 87.4721 294.226 87.2745 294.996 87.2745C296.035 87.2745 296.876 87.6017 297.517 88.256C298.152 88.9167 298.47 89.7848 298.47 90.8602V98.1287H295.66V91.5695C295.66 90.2739 295.07 89.6261 293.889 89.6261C293.338 89.6261 292.892 89.814 292.552 90.1897C292.212 90.559 292.042 91.0481 292.042 91.657V98.1287H289.328V91.4626C289.328 90.8926 289.174 90.4424 288.866 90.112C288.558 89.7881 288.132 89.6261 287.586 89.6261C287.035 89.6261 286.582 89.8204 286.229 90.2091C285.883 90.5914 285.71 91.0869 285.71 91.6959V98.1287H282.9V87.43ZM303.474 98.255C302.441 98.255 301.591 97.9603 300.924 97.3708C300.244 96.7683 299.904 95.9942 299.904 95.0483C299.904 94.0831 300.263 93.3252 300.982 92.7745C301.687 92.2368 302.72 91.9259 304.08 91.8416L306.727 91.6765V90.9671C306.727 90.4553 306.563 90.0601 306.236 89.7816C305.909 89.5095 305.453 89.3734 304.869 89.3734C304.369 89.3734 303.949 89.4965 303.609 89.7427C303.275 89.9824 303.073 90.2998 303.002 90.695H300.433C300.472 89.6715 300.908 88.8422 301.742 88.2074C302.582 87.566 303.663 87.2454 304.985 87.2454C306.345 87.2454 307.435 87.5693 308.257 88.2171C309.078 88.8649 309.488 89.7233 309.488 90.7922V98.1287H306.775V96.4768H306.717C306.435 97.0274 305.992 97.4647 305.389 97.7886C304.805 98.0996 304.167 98.255 303.474 98.255ZM311.384 87.43H314.098V89.3443H314.156C314.521 87.9839 315.362 87.3036 316.677 87.3036C316.991 87.3036 317.254 87.3393 317.466 87.4106V89.9273C317.216 89.8107 316.879 89.7524 316.456 89.7524C315.743 89.7524 315.188 89.963 314.791 90.384C314.393 90.8051 314.194 91.3914 314.194 92.1429V98.1287H311.384V87.43ZM325.289 87.43H328.484L324.404 92.0262L328.677 98.1287H325.443L322.345 93.7365L321.585 94.5625V98.1287H318.775V83.4362H321.585V91.7542H321.623L325.289 87.43ZM338.656 94.8637C338.502 95.9002 337.986 96.7327 337.107 97.3611C336.228 97.9959 335.143 98.3134 333.854 98.3134C332.244 98.3134 330.974 97.8242 330.043 96.846C329.119 95.8678 328.658 94.5269 328.658 92.8231C328.658 91.1193 329.116 89.7654 330.034 88.7613C330.957 87.7507 332.196 87.2454 333.748 87.2454C335.275 87.2454 336.487 87.7247 337.386 88.6835C338.29 89.6423 338.743 90.9347 338.743 92.5607V93.4353H331.429V93.6102C331.429 94.3811 331.657 95.0062 332.112 95.4856C332.568 95.9585 333.164 96.195 333.902 96.195C334.435 96.195 334.893 96.0751 335.278 95.8354C335.67 95.6022 335.933 95.2783 336.067 94.8637H338.656ZM343.814 85.0493V87.43H345.777V89.5775H343.814V94.7762C343.814 95.5925 344.234 96.0006 345.074 96.0006C345.35 96.0006 345.585 95.9844 345.777 95.952V98.051C345.392 98.1287 344.94 98.1676 344.42 98.1676C343.195 98.1676 342.319 97.9408 341.793 97.4874C341.267 97.0339 341.004 96.2857 341.004 95.2427V89.5775H339.57V87.43H341.004V85.0493H343.814ZM206.158 75.3637L223.749 85.2308L219.312 89.471L204.183 74.9746C204.766 74.8246 205.456 74.9336 206.158 75.3637ZM202.679 77.2993C202.679 76.9702 202.73 76.6821 202.806 76.415L217.869 90.8485L202.803 105.242C202.73 104.978 202.679 104.693 202.679 104.369V77.2993ZM230.234 88.8689L225.539 86.2351L220.73 90.8285L225.628 95.5239L230.197 92.9942C232.426 91.7128 231.613 89.6501 230.234 88.8689ZM206.157 106.302C205.437 106.743 204.73 106.843 204.138 106.676L219.285 92.2058L223.801 96.5331L206.157 106.302Z" fill="white"/>
</svg>
