<?xml version="1.0" encoding="utf-8"?>
<!-- Generator: Adobe Illustrator 21.0.2, SVG Export Plug-In . SVG Version: 6.00 Build 0)  -->
<svg version="1.1" id="Слой_1" xmlns="http://www.w3.org/2000/svg" xmlns:xlink="http://www.w3.org/1999/xlink" x="0px" y="0px"
	 viewBox="0 0 186.6 30.3" style="enable-background:new 0 0 186.6 30.3;" xml:space="preserve">
<style type="text/css">
	.st0{fill:#FFFFFF;}
	.st1{enable-background:new    ;}
	.st2{fill:none;stroke:#FFFFFF;stroke-miterlimit:10;}
</style>
<g>
	<path class="st0" d="M0,18.3c1.3-0.4,2.3-1.6,2.3-3.1s-1-2.7-2.3-3.1c0.9,0.7,1.5,1.8,1.5,3.1C1.5,16.4,0.9,17.5,0,18.3L0,18.3z
		 M13.4,28.9c7.6,0,13.7-6.1,13.7-13.7S21,1.5,13.4,1.5c-0.6,0-1.1,0-1.7,0.1c6.8,0.8,12,6.6,12,13.6s-5.2,12.8-12,13.6
		C12.3,28.8,12.8,28.9,13.4,28.9L13.4,28.9z M5.2,25.2c5.5,0,10-4.5,10-10s-4.5-10-10-10c-0.4,0-0.8,0-1.2,0.1
		c5,0.6,8.8,4.8,8.8,9.9S9,24.5,4,25.1C4.4,25.2,4.8,25.2,5.2,25.2L5.2,25.2z M8.5,27.4c6.8,0,12.3-5.5,12.3-12.3S15.3,2.8,8.5,2.8
		c-0.5,0-1,0-1.5,0.1c6.1,0.8,10.8,6,10.8,12.3S13.1,26.6,7.1,27.4C7.5,27.4,8,27.4,8.5,27.4L8.5,27.4z M1.1,19.9
		c2.6,0,4.7-2.1,4.7-4.7s-2.1-4.7-4.7-4.7c-0.2,0-0.4,0-0.6,0c2.3,0.3,4.1,2.3,4.1,4.7s-1.8,4.4-4.1,4.7C0.8,19.9,0.9,19.9,1.1,19.9
		L1.1,19.9z M2.8,22.6c4.1,0,7.5-3.3,7.5-7.5c0-4.1-3.3-7.5-7.5-7.5c-0.3,0-0.6,0-0.9,0.1c3.7,0.5,6.5,3.6,6.5,7.4S5.5,22,1.9,22.5
		C2.2,22.6,2.5,22.6,2.8,22.6L2.8,22.6z"/>
</g>
<g class="st1">
	<path class="st0" d="M33.7,9.3h13.5v2.5h-5.3v10h-3v-10h-5.2V9.3z"/>
	<path class="st0" d="M48.7,21.8V9.3h12.8v2.4h-9.8v2.8h9.5v2.2h-9.5v2.9h9.8v2.4H48.7z"/>
	<path class="st0" d="M63.6,21.8V9.3h3v10h7.7v2.5H63.6z"/>
	<path class="st0" d="M76.4,21.8V9.3h12.8v2.4h-9.8v2.8h9.5v2.2h-9.5v2.9h9.8v2.4H76.4z"/>
	<path class="st0" d="M102.7,17.5h3c0,1.7-0.3,2.8-0.9,3.4c-0.6,0.6-1.8,0.9-3.6,0.9h-5.6c-1.7,0-2.9-0.3-3.6-0.9
		c-0.7-0.6-1-1.8-1-3.5v-3.5c0-1.8,0.3-3,1-3.7c0.7-0.7,2-1,3.8-1h5c1.6,0,2.8,0.3,3.5,0.8c0.9,0.7,1.3,1.8,1.3,3.5h-3
		c0-0.7-0.2-1.1-0.5-1.4c-0.4-0.3-1-0.4-1.8-0.4h-3.8c-1,0-1.6,0.1-2,0.4c-0.3,0.3-0.5,0.9-0.5,1.9v3.1c0,0.9,0.2,1.5,0.6,1.9
		c0.3,0.3,0.9,0.4,1.9,0.4h3.8c0.9,0,1.5-0.1,1.9-0.3C102.5,18.7,102.7,18.2,102.7,17.5z"/>
	<path class="st0" d="M122.2,17.5c0,1.6-0.3,2.7-1,3.3c-0.6,0.6-1.8,0.9-3.6,0.9h-5.5c-1.7,0-2.9-0.3-3.6-1
		c-0.7-0.7-1.1-1.7-1.1-3.3v-3.9c0-1.7,0.3-2.9,1-3.5s1.9-1,3.6-1h5.5c1.6,0,2.8,0.3,3.4,0.9c0.7,0.7,1.1,1.8,1.1,3.5V17.5z
		 M110.5,17.2c0,0.8,0.2,1.4,0.5,1.7c0.3,0.3,0.9,0.4,1.9,0.4h4c1,0,1.6-0.1,1.9-0.4c0.3-0.3,0.5-0.8,0.5-1.7v-3.3
		c0-0.9-0.2-1.5-0.5-1.8c-0.3-0.3-1-0.4-1.9-0.4h-3.9c-0.9,0-1.6,0.2-1.9,0.5c-0.3,0.3-0.5,0.9-0.5,1.8V17.2z"/>
	<path class="st0" d="M124.3,9.3h5.6l4.1,10h0.2l4.1-10h5.6v12.5h-3v-10h-0.4l-4.3,10H132l-4.3-10h-0.4v10h-3V9.3z"/>
	<path class="st0" d="M151.8,9.3h13.5v2.5H160v10h-3v-10h-5.2V9.3z"/>
	<path class="st0" d="M165.7,9.3h3.5l5.2,10h0.4l5.3-10h3.4l-6.7,12.5h-4.3L165.7,9.3z"/>
</g>
<rect x="149.1" y="1" class="st2" width="36.5" height="28.4"/>
</svg>
