<?xml version="1.0" encoding="utf-8"?>
<!-- Generator: Adobe Illustrator 21.0.2, SVG Export Plug-In . SVG Version: 6.00 Build 0)  -->
<svg version="1.1" id="Слой_1" xmlns="http://www.w3.org/2000/svg" xmlns:xlink="http://www.w3.org/1999/xlink" x="0px" y="0px"
	 viewBox="0 0 1993.6 335.6" style="enable-background:new 0 0 1993.6 335.6;" xml:space="preserve">
<style type="text/css">
	.st0{fill:#FFFFFF;}
</style>
<g>
	<path class="st0" d="M0,206.8c16.2-4.7,28.1-19.7,28.1-37.4S16.2,136.7,0,132c11.3,8.6,18.6,22.1,18.6,37.4
		C18.7,184.7,11.4,198.3,0,206.8L0,206.8z M162.3,335.6c91.7,0,166.1-74.4,166.1-166.1S254,3.4,162.3,3.4c-6.9,0-13.7,0.4-20.4,1.3
		c82.1,10.1,145.7,80,145.7,164.9c0,84.8-63.6,154.8-145.7,164.9C148.6,335.1,155.3,335.6,162.3,335.6L162.3,335.6z M62.9,290.9
		c67.1,0,121.5-54.4,121.5-121.5S130,47.9,62.9,47.9c-5,0-10,0.3-14.9,0.9c60,7.3,106.5,58.5,106.5,120.5S108,282.5,48,289.8
		C52.9,290.6,57.8,290.9,62.9,290.9L62.9,290.9z M103.6,317.9c82,0,148.5-66.5,148.5-148.5S185.6,20.9,103.6,20.9
		c-6.2,0-12.2,0.4-18.2,1.1c73.4,9,130.2,71.5,130.2,147.3S158.7,307.7,85.4,316.6C91.3,317.5,97.4,317.9,103.6,317.9L103.6,317.9z
		 M13.9,226.7c31.6,0,57.2-25.6,57.2-57.2s-25.6-57.2-57.2-57.2c-2.4,0-4.7,0.2-7,0.4c28.3,3.5,50.2,27.6,50.2,56.8
		s-21.9,53.3-50.2,56.8C9.1,226.5,11.5,226.7,13.9,226.7L13.9,226.7z M33.9,259.8c49.9,0,90.3-40.5,90.3-90.3
		c0-49.9-40.4-90.3-90.3-90.3c-3.7,0-7.4,0.2-11.1,0.7c44.7,5.5,79.2,43.5,79.2,89.6s-34.6,84.2-79.2,89.6
		C26.5,259.5,30.2,259.8,33.9,259.8L33.9,259.8z"/>
</g>
<g>
	<path class="st0" d="M410.3,86.2h40.2v104.5c0,11.3,2.4,19.2,7.1,23.6c4.8,4.4,12.7,6.7,23.8,6.7h55.4c10.2,0,17.6-2.3,22.3-6.8
		c4.7-4.5,7-12.4,7-23.8V86.2h40.2v108.3c0,22.1-4.5,37.6-13.6,46.5c-9,8.9-24.5,13.3-46.5,13.3h-73.8c-21.3,0-37-4.9-47.1-14.7
		c-10.1-9.8-15.1-24.8-15.1-45.2V86.2z"/>
	<path class="st0" d="M624.5,86.2h188.8v33.9L688.4,221h124.9v33.4H624.5v-33l129.5-101.8H624.5V86.2z"/>
	<path class="st0" d="M1035.4,197c0,21.3-4.3,36.2-12.9,44.6c-8.6,8.5-24.6,12.7-47.8,12.7h-73.8c-22.4,0-38.4-4.4-47.8-13.2
		c-9.4-8.8-14.2-23.5-14.2-44.2v-52.8c0-22.7,4.5-38.4,13.6-46.9c9-8.5,25.2-12.8,48.4-12.8h73.8c21.8,0,37.1,4,46,12.1
		c9.8,8.9,14.8,24.8,14.8,47.7V197z M879.1,192.9c0,11,2.2,18.4,6.5,22.3c4.4,3.9,12.7,5.8,24.9,5.8h53.2c12.9,0,21.4-1.9,25.4-5.6
		c4-3.7,6-11.3,6-22.7v-44.8c0-11.9-2.3-19.9-6.8-24c-4.5-4-13-6-25.4-6h-51.8c-12.6,0-21.1,2.1-25.5,6.2
		c-4.4,4.1-6.7,12.1-6.7,24.1V192.9z"/>
	<path class="st0" d="M1063,86.2h67.5L1232.9,221h5.6V86.2h40.2v168.2h-69l-100.9-134.8h-5.6v134.8H1063V86.2z"/>
	<path class="st0" d="M1308.4,254.4V86.2h40.2V221h103.8v33.4H1308.4z"/>
	<path class="st0" d="M1525.4,86.2v168.2h-40.2V86.2H1525.4z"/>
	<path class="st0" d="M1559.3,86.2h67.5L1729.2,221h5.6V86.2h40.2v168.2h-69L1605,119.6h-5.6v134.8h-40.2V86.2z"/>
	<path class="st0" d="M1806.6,254.4V86.2h171.6v31.7h-131.4v37h127.3v29.3h-127.3v38.5h131.4v31.7H1806.6z"/>
</g>
</svg>
